<svg width="259" height="40" viewBox="0 0 259 40" fill="none" xmlns="http://www.w3.org/2000/svg">
<circle cx="30" cy="22" r="5" fill="#F9B131"/>
<circle cx="66" cy="22" r="5" fill="#E84C15"/>
<circle cx="48" cy="22" r="5" fill="#7FC8C3"/>
<path d="M5.684 29V20.964H15.624V29H18.48V10.24H15.624V18.332H5.684V10.24H2.828V29H5.684ZM29.3088 29.336C31.5488 29.336 33.3688 28.272 34.4048 26.592V29H37.0368V22.112C37.0368 18.024 33.8728 14.944 29.7288 14.944C25.5568 14.944 22.4208 18.192 22.4208 22.112C22.4208 26.088 25.3328 29.336 29.3088 29.336ZM29.7288 26.704C27.1808 26.704 25.1928 24.632 25.1928 22.14C25.1928 19.62 27.1808 17.548 29.7288 17.548C32.3048 17.548 34.2648 19.62 34.2648 22.14C34.2648 24.632 32.3048 26.704 29.7288 26.704ZM43.7795 35.3V27.292C44.8995 28.524 46.5795 29.336 48.4275 29.336C52.5995 29.336 55.5955 26.256 55.5955 22.112C55.5955 18.192 52.4595 14.944 48.3155 14.944C44.1715 14.944 41.0075 18.024 41.0075 22.112V35.3H43.7795ZM48.3155 26.732C45.7395 26.732 43.7795 24.632 43.7795 22.14C43.7795 19.62 45.7395 17.576 48.3155 17.576C50.8635 17.576 52.8235 19.62 52.8235 22.14C52.8235 24.632 50.8635 26.732 48.3155 26.732ZM61.4983 35.3V27.292C62.6183 28.524 64.2983 29.336 66.1463 29.336C70.3183 29.336 73.3143 26.256 73.3143 22.112C73.3143 18.192 70.1783 14.944 66.0343 14.944C61.8903 14.944 58.7263 18.024 58.7263 22.112V35.3H61.4983ZM66.0343 26.732C63.4583 26.732 61.4983 24.632 61.4983 22.14C61.4983 19.62 63.4583 17.576 66.0343 17.576C68.5823 17.576 70.5423 19.62 70.5423 22.14C70.5423 24.632 68.5823 26.732 66.0343 26.732ZM82.717 35.664C87.169 35.664 89.857 32.5 89.857 27.908V15.28H87.057V22.056C87.057 24.576 85.489 26.592 83.081 26.592C80.589 26.592 79.245 24.828 79.245 22.252V15.28H76.501V22.392C76.501 26.424 78.545 29.196 82.745 29.196C84.817 29.196 86.273 28.272 87.085 26.732V27.936C87.085 30.904 85.573 33.088 82.661 33.088C80.785 33.088 79.245 32.22 78.461 30.736L76.165 31.996C77.397 34.432 79.805 35.664 82.717 35.664ZM105.593 29V21.86H115.029V19.228H105.593V12.872H115.673V10.24H105.369C103.437 10.24 102.737 11.22 102.737 12.816V29H105.593ZM125.05 29.336C129.166 29.336 132.33 26.088 132.33 22.112C132.33 18.192 129.194 14.944 125.05 14.944C120.934 14.944 117.714 18.164 117.714 22.112C117.714 26.088 120.906 29.336 125.05 29.336ZM125.05 26.704C122.474 26.704 120.486 24.632 120.486 22.14C120.486 19.62 122.474 17.548 125.05 17.548C127.598 17.548 129.558 19.62 129.558 22.14C129.558 24.632 127.598 26.704 125.05 26.704ZM141.978 26.648C139.458 26.648 138.086 24.436 138.086 21.916V15.28H135.314V22.196C135.314 26.172 137.722 29.336 141.978 29.336C146.29 29.336 148.698 26.2 148.698 22.224V15.28H145.926V21.888C145.926 24.436 144.526 26.648 141.978 26.648ZM159.374 17.604C162.118 17.604 163.518 19.816 163.518 22.392V29H166.29V22.056C166.29 18.08 163.854 14.944 159.374 14.944C154.95 14.944 152.57 18.08 152.57 22.084V29H155.342V22.364C155.342 19.816 156.686 17.604 159.374 17.604ZM176.701 29.336C180.845 29.336 184.009 26.228 184.009 22.168V8.98H181.237L181.209 16.988C180.089 15.756 178.409 14.944 176.561 14.944C172.417 14.944 169.393 17.996 169.393 22.168C169.393 26.116 172.529 29.336 176.701 29.336ZM176.701 26.732C174.153 26.732 172.165 24.66 172.165 22.14C172.165 19.648 174.153 17.576 176.701 17.576C179.277 17.576 181.237 19.648 181.237 22.14C181.237 24.66 179.277 26.732 176.701 26.732ZM194 29.336C196.24 29.336 198.06 28.272 199.096 26.592V29H201.728V22.112C201.728 18.024 198.564 14.944 194.42 14.944C190.248 14.944 187.112 18.192 187.112 22.112C187.112 26.088 190.024 29.336 194 29.336ZM194.42 26.704C191.872 26.704 189.884 24.632 189.884 22.14C189.884 19.62 191.872 17.548 194.42 17.548C196.996 17.548 198.956 19.62 198.956 22.14C198.956 24.632 196.996 26.704 194.42 26.704ZM211.943 29.364C212.951 29.364 214.043 29.056 214.743 28.58V26.032C214.071 26.508 213.091 26.844 212.195 26.844C210.543 26.844 209.479 25.78 209.479 23.988V17.688H214.743V15.28H209.479V11.724H206.707V15.28H203.991V17.688H206.707V24.072C206.707 27.208 208.527 29.364 211.943 29.364ZM220.236 12.564C221.244 12.564 222.028 11.752 222.028 10.744C222.028 9.736 221.244 8.896 220.236 8.896C219.228 8.896 218.416 9.736 218.416 10.744C218.416 11.752 219.228 12.564 220.236 12.564ZM218.864 15.28V29H221.636V15.28H218.864ZM232.62 29.336C236.736 29.336 239.9 26.088 239.9 22.112C239.9 18.192 236.764 14.944 232.62 14.944C228.504 14.944 225.284 18.164 225.284 22.112C225.284 26.088 228.476 29.336 232.62 29.336ZM232.62 26.704C230.044 26.704 228.056 24.632 228.056 22.14C228.056 19.62 230.044 17.548 232.62 17.548C235.168 17.548 237.128 19.62 237.128 22.14C237.128 24.632 235.168 26.704 232.62 26.704ZM249.8 17.604C252.544 17.604 253.944 19.816 253.944 22.392V29H256.716V22.056C256.716 18.08 254.28 14.944 249.8 14.944C245.376 14.944 242.996 18.08 242.996 22.084V29H245.768V22.364C245.768 19.816 247.112 17.604 249.8 17.604Z" fill="#1E1E1E"/>
</svg>
